<?xml version="1.0" encoding="UTF-8"?>
<svg xmlns="http://www.w3.org/2000/svg" version="1.1" width="200" height="200" viewBox="0 0 200 200"><rect x="0" y="0" width="200" height="200" fill="#ffffff"/><g transform="scale(4.444)"><g transform="translate(0,0)"><path fill-rule="evenodd" d="M12 0L12 1L11 1L11 2L12 2L12 4L14 4L14 3L15 3L15 5L13 5L13 6L12 6L12 7L13 7L13 6L14 6L14 8L12 8L12 9L15 9L15 8L16 8L16 9L21 9L21 10L20 10L20 11L19 11L19 10L18 10L18 11L17 11L17 10L15 10L15 11L14 11L14 10L11 10L11 9L10 9L10 8L11 8L11 6L10 6L10 5L11 5L11 4L10 4L10 5L8 5L8 7L9 7L9 6L10 6L10 8L6 8L6 9L8 9L8 11L7 11L7 10L6 10L6 11L7 11L7 12L3 12L3 13L7 13L7 14L4 14L4 15L3 15L3 14L2 14L2 15L1 15L1 17L0 17L0 19L1 19L1 21L0 21L0 22L1 22L1 21L2 21L2 23L3 23L3 25L2 25L2 27L1 27L1 26L0 26L0 27L1 27L1 28L0 28L0 34L3 34L3 33L2 33L2 32L5 32L5 34L4 34L4 35L1 35L1 36L0 36L0 37L1 37L1 36L3 36L3 37L5 37L5 34L6 34L6 35L7 35L7 36L6 36L6 37L7 37L7 36L8 36L8 39L10 39L10 38L9 38L9 37L11 37L11 38L12 38L12 39L11 39L11 41L10 41L10 40L8 40L8 45L9 45L9 43L10 43L10 45L11 45L11 43L12 43L12 44L13 44L13 45L14 45L14 44L13 44L13 41L16 41L16 39L15 39L15 37L19 37L19 39L18 39L18 41L19 41L19 39L20 39L20 42L21 42L21 43L19 43L19 44L16 44L16 42L15 42L15 45L19 45L19 44L21 44L21 43L23 43L23 45L28 45L28 44L29 44L29 45L30 45L30 44L31 44L31 45L32 45L32 44L33 44L33 45L35 45L35 44L36 44L36 45L37 45L37 44L38 44L38 45L39 45L39 44L40 44L40 45L42 45L42 44L43 44L43 45L44 45L44 44L43 44L43 42L44 42L44 43L45 43L45 42L44 42L44 41L45 41L45 40L44 40L44 39L42 39L42 38L43 38L43 37L42 37L42 38L41 38L41 36L43 36L43 35L44 35L44 36L45 36L45 35L44 35L44 34L45 34L45 33L43 33L43 34L42 34L42 32L43 32L43 31L42 31L42 32L40 32L40 31L41 31L41 30L39 30L39 29L41 29L41 28L44 28L44 30L45 30L45 27L43 27L43 25L44 25L44 26L45 26L45 24L43 24L43 23L42 23L42 24L41 24L41 20L43 20L43 19L44 19L44 20L45 20L45 19L44 19L44 18L45 18L45 17L44 17L44 18L42 18L42 17L39 17L39 16L41 16L41 14L42 14L42 16L43 16L43 15L44 15L44 16L45 16L45 15L44 15L44 14L45 14L45 12L44 12L44 10L45 10L45 9L44 9L44 8L43 8L43 9L42 9L42 8L41 8L41 9L40 9L40 8L39 8L39 9L40 9L40 11L39 11L39 12L38 12L38 13L36 13L36 12L37 12L37 11L38 11L38 8L37 8L37 6L36 6L36 7L35 7L35 6L34 6L34 7L33 7L33 6L32 6L32 5L31 5L31 2L32 2L32 3L34 3L34 2L33 2L33 1L34 1L34 0L33 0L33 1L32 1L32 0L30 0L30 1L29 1L29 0L28 0L28 1L26 1L26 2L27 2L27 3L26 3L26 4L23 4L23 3L25 3L25 1L24 1L24 0L22 0L22 2L23 2L23 3L20 3L20 0L19 0L19 1L18 1L18 2L19 2L19 3L18 3L18 4L17 4L17 2L16 2L16 3L15 3L15 2L14 2L14 3L13 3L13 2L12 2L12 1L13 1L13 0ZM15 0L15 1L16 1L16 0ZM36 0L36 1L35 1L35 4L34 4L34 5L37 5L37 3L36 3L36 1L37 1L37 0ZM8 1L8 2L9 2L9 3L8 3L8 4L9 4L9 3L10 3L10 2L9 2L9 1ZM23 1L23 2L24 2L24 1ZM30 1L30 2L29 2L29 3L28 3L28 5L27 5L27 4L26 4L26 5L25 5L25 9L22 9L22 10L21 10L21 11L20 11L20 12L21 12L21 13L18 13L18 12L19 12L19 11L18 11L18 12L17 12L17 11L16 11L16 12L14 12L14 13L13 13L13 14L12 14L12 16L13 16L13 17L12 17L12 19L10 19L10 20L9 20L9 19L8 19L8 18L9 18L9 17L10 17L10 16L8 16L8 18L7 18L7 17L5 17L5 16L7 16L7 15L4 15L4 18L3 18L3 15L2 15L2 17L1 17L1 18L2 18L2 19L4 19L4 20L2 20L2 21L3 21L3 22L4 22L4 20L9 20L9 21L10 21L10 22L9 22L9 23L10 23L10 24L11 24L11 23L12 23L12 21L11 21L11 20L12 20L12 19L13 19L13 20L14 20L14 21L13 21L13 22L14 22L14 21L15 21L15 20L14 20L14 19L17 19L17 21L16 21L16 22L15 22L15 23L16 23L16 24L18 24L18 23L19 23L19 24L20 24L20 22L19 22L19 21L20 21L20 20L21 20L21 16L23 16L23 17L22 17L22 18L25 18L25 20L27 20L27 19L28 19L28 18L27 18L27 17L29 17L29 18L30 18L30 19L29 19L29 20L28 20L28 21L26 21L26 22L25 22L25 26L24 26L24 27L23 27L23 26L22 26L22 25L20 25L20 26L19 26L19 25L13 25L13 27L14 27L14 29L13 29L13 28L12 28L12 27L11 27L11 26L12 26L12 25L10 25L10 27L9 27L9 28L8 28L8 27L6 27L6 26L7 26L7 25L6 25L6 26L5 26L5 25L4 25L4 26L3 26L3 27L2 27L2 28L3 28L3 30L2 30L2 31L1 31L1 32L2 32L2 31L3 31L3 30L4 30L4 31L5 31L5 32L7 32L7 33L6 33L6 34L7 34L7 35L8 35L8 34L9 34L9 33L8 33L8 32L9 32L9 28L10 28L10 27L11 27L11 29L10 29L10 32L11 32L11 33L12 33L12 34L11 34L11 35L10 35L10 36L11 36L11 37L13 37L13 38L14 38L14 37L15 37L15 36L14 36L14 35L17 35L17 36L19 36L19 37L20 37L20 36L21 36L21 35L20 35L20 34L22 34L22 33L23 33L23 34L24 34L24 35L22 35L22 36L24 36L24 35L25 35L25 34L27 34L27 36L25 36L25 37L26 37L26 39L25 39L25 40L27 40L27 36L28 36L28 39L29 39L29 40L28 40L28 41L29 41L29 42L28 42L28 43L31 43L31 44L32 44L32 41L33 41L33 40L32 40L32 39L33 39L33 38L35 38L35 37L36 37L36 36L37 36L37 35L36 35L36 33L37 33L37 32L38 32L38 35L39 35L39 36L41 36L41 33L40 33L40 35L39 35L39 32L38 32L38 31L39 31L39 30L38 30L38 29L39 29L39 28L38 28L38 27L39 27L39 25L37 25L37 26L36 26L36 23L34 23L34 22L36 22L36 21L35 21L35 20L36 20L36 19L37 19L37 18L36 18L36 19L34 19L34 18L35 18L35 16L36 16L36 17L37 17L37 16L36 16L36 15L39 15L39 13L38 13L38 14L36 14L36 15L34 15L34 14L35 14L35 13L33 13L33 12L32 12L32 13L31 13L31 14L30 14L30 11L31 11L31 10L30 10L30 6L31 6L31 9L33 9L33 10L32 10L32 11L33 11L33 10L35 10L35 11L34 11L34 12L35 12L35 11L36 11L36 10L35 10L35 9L33 9L33 8L32 8L32 6L31 6L31 5L30 5L30 2L31 2L31 1ZM16 4L16 5L17 5L17 7L18 7L18 8L19 8L19 7L20 7L20 4L18 4L18 5L17 5L17 4ZM21 5L21 8L24 8L24 5ZM26 5L26 7L27 7L27 8L26 8L26 9L27 9L27 8L29 8L29 6L30 6L30 5L28 5L28 7L27 7L27 5ZM15 6L15 7L16 7L16 6ZM18 6L18 7L19 7L19 6ZM22 6L22 7L23 7L23 6ZM34 7L34 8L35 8L35 7ZM0 8L0 10L1 10L1 9L5 9L5 8ZM36 8L36 9L37 9L37 8ZM9 9L9 10L10 10L10 11L9 11L9 13L8 13L8 14L9 14L9 15L10 15L10 14L9 14L9 13L12 13L12 12L13 12L13 11L12 11L12 12L11 12L11 10L10 10L10 9ZM41 9L41 10L42 10L42 9ZM43 9L43 10L44 10L44 9ZM23 10L23 12L22 12L22 11L21 11L21 12L22 12L22 14L19 14L19 15L22 15L22 14L24 14L24 17L25 17L25 15L26 15L26 17L27 17L27 16L29 16L29 15L30 15L30 18L31 18L31 19L30 19L30 20L29 20L29 21L28 21L28 22L26 22L26 23L27 23L27 24L26 24L26 25L27 25L27 26L25 26L25 27L24 27L24 29L25 29L25 30L26 30L26 31L27 31L27 32L25 32L25 31L23 31L23 33L24 33L24 34L25 34L25 33L27 33L27 34L28 34L28 36L29 36L29 35L30 35L30 36L31 36L31 37L29 37L29 39L30 39L30 40L29 40L29 41L30 41L30 42L31 42L31 41L30 41L30 40L31 40L31 39L32 39L32 38L31 38L31 37L32 37L32 36L33 36L33 35L35 35L35 36L36 36L36 35L35 35L35 34L34 34L34 33L32 33L32 31L31 31L31 30L32 30L32 29L31 29L31 27L30 27L30 26L31 26L31 25L32 25L32 26L33 26L33 27L32 27L32 28L34 28L34 29L35 29L35 28L36 28L36 27L35 27L35 26L33 26L33 25L32 25L32 24L31 24L31 23L30 23L30 26L29 26L29 25L27 25L27 24L29 24L29 23L28 23L28 22L29 22L29 21L30 21L30 22L31 22L31 21L32 21L32 16L31 16L31 15L30 15L30 14L29 14L29 13L28 13L28 12L29 12L29 11L30 11L30 10ZM0 11L0 14L1 14L1 13L2 13L2 12L1 12L1 11ZM24 11L24 12L23 12L23 13L24 13L24 14L25 14L25 12L26 12L26 14L27 14L27 11ZM16 12L16 13L14 13L14 14L15 14L15 18L16 18L16 17L19 17L19 18L18 18L18 19L19 19L19 20L18 20L18 21L19 21L19 20L20 20L20 17L19 17L19 16L18 16L18 14L16 14L16 13L17 13L17 12ZM40 12L40 13L43 13L43 14L44 14L44 12ZM32 13L32 14L33 14L33 13ZM28 14L28 15L29 15L29 14ZM13 15L13 16L14 16L14 15ZM16 15L16 16L17 16L17 15ZM33 15L33 16L34 16L34 15ZM13 17L13 19L14 19L14 17ZM38 17L38 18L39 18L39 19L38 19L38 20L40 20L40 18L39 18L39 17ZM4 18L4 19L7 19L7 18ZM26 18L26 19L27 19L27 18ZM41 18L41 19L42 19L42 18ZM22 19L22 20L23 20L23 19ZM5 21L5 24L8 24L8 21ZM21 21L21 24L24 24L24 21ZM37 21L37 24L40 24L40 21ZM42 21L42 22L43 22L43 21ZM44 21L44 22L45 22L45 21ZM6 22L6 23L7 23L7 22ZM10 22L10 23L11 23L11 22ZM17 22L17 23L18 23L18 22ZM22 22L22 23L23 23L23 22ZM38 22L38 23L39 23L39 22ZM0 23L0 24L1 24L1 23ZM13 23L13 24L14 24L14 23ZM33 23L33 24L34 24L34 25L35 25L35 24L34 24L34 23ZM42 24L42 25L40 25L40 26L42 26L42 25L43 25L43 24ZM8 25L8 26L9 26L9 25ZM14 26L14 27L16 27L16 28L15 28L15 29L14 29L14 30L15 30L15 29L17 29L17 27L18 27L18 29L19 29L19 30L18 30L18 31L16 31L16 32L15 32L15 33L19 33L19 34L18 34L18 35L19 35L19 36L20 36L20 35L19 35L19 34L20 34L20 33L22 33L22 30L23 30L23 29L21 29L21 32L20 32L20 31L19 31L19 30L20 30L20 29L19 29L19 28L20 28L20 27L18 27L18 26ZM21 26L21 27L22 27L22 26ZM28 26L28 27L25 27L25 28L26 28L26 30L27 30L27 28L28 28L28 31L29 31L29 32L28 32L28 34L30 34L30 35L31 35L31 36L32 36L32 35L33 35L33 34L32 34L32 33L31 33L31 34L30 34L30 31L29 31L29 29L30 29L30 27L29 27L29 26ZM37 26L37 27L38 27L38 26ZM4 27L4 28L5 28L5 29L7 29L7 28L6 28L6 27ZM28 27L28 28L29 28L29 27ZM34 27L34 28L35 28L35 27ZM40 27L40 28L41 28L41 27ZM11 29L11 32L12 32L12 33L13 33L13 35L14 35L14 33L13 33L13 32L14 32L14 31L12 31L12 30L13 30L13 29ZM36 29L36 30L34 30L34 31L33 31L33 32L37 32L37 31L38 31L38 30L37 30L37 29ZM5 30L5 31L7 31L7 32L8 32L8 30ZM44 31L44 32L45 32L45 31ZM24 32L24 33L25 33L25 32ZM11 35L11 36L12 36L12 35ZM21 37L21 40L24 40L24 37ZM37 37L37 40L40 40L40 37ZM44 37L44 38L45 38L45 37ZM22 38L22 39L23 39L23 38ZM30 38L30 39L31 39L31 38ZM38 38L38 39L39 39L39 38ZM12 39L12 40L14 40L14 39ZM34 39L34 40L35 40L35 41L34 41L34 42L33 42L33 44L34 44L34 42L37 42L37 41L36 41L36 40L35 40L35 39ZM41 39L41 42L40 42L40 44L41 44L41 42L42 42L42 41L44 41L44 40L42 40L42 39ZM11 41L11 42L10 42L10 43L11 43L11 42L12 42L12 41ZM22 41L22 42L23 42L23 43L24 43L24 44L25 44L25 43L24 43L24 42L27 42L27 41ZM38 41L38 44L39 44L39 41ZM17 42L17 43L18 43L18 42ZM36 43L36 44L37 44L37 43ZM0 0L0 7L7 7L7 0ZM1 1L1 6L6 6L6 1ZM2 2L2 5L5 5L5 2ZM38 0L38 7L45 7L45 0ZM39 1L39 6L44 6L44 1ZM40 2L40 5L43 5L43 2ZM0 38L0 45L7 45L7 38ZM1 39L1 44L6 44L6 39ZM2 40L2 43L5 43L5 40Z" fill="#000000"/></g></g></svg>
