<?xml version="1.0" encoding="UTF-8"?>
<svg xmlns="http://www.w3.org/2000/svg" version="1.1" width="200" height="200" viewBox="0 0 200 200"><rect x="0" y="0" width="200" height="200" fill="#ffffff"/><g transform="scale(4.444)"><g transform="translate(0,0)"><path fill-rule="evenodd" d="M9 0L9 1L8 1L8 2L10 2L10 1L12 1L12 2L13 2L13 0ZM14 0L14 1L15 1L15 2L14 2L14 3L11 3L11 4L9 4L9 3L8 3L8 4L9 4L9 5L8 5L8 7L9 7L9 6L10 6L10 7L11 7L11 8L12 8L12 9L10 9L10 10L9 10L9 8L6 8L6 9L5 9L5 8L0 8L0 9L2 9L2 10L0 10L0 11L2 11L2 12L1 12L1 13L0 13L0 14L2 14L2 15L1 15L1 16L3 16L3 14L5 14L5 13L4 13L4 12L5 12L5 11L8 11L8 10L9 10L9 12L10 12L10 13L12 13L12 14L8 14L8 12L6 12L6 13L7 13L7 14L6 14L6 15L5 15L5 16L6 16L6 17L5 17L5 20L4 20L4 19L3 19L3 20L2 20L2 19L1 19L1 20L0 20L0 21L1 21L1 22L0 22L0 23L1 23L1 24L2 24L2 23L3 23L3 24L4 24L4 26L3 26L3 25L0 25L0 26L1 26L1 27L0 27L0 28L1 28L1 27L2 27L2 29L1 29L1 31L0 31L0 33L1 33L1 34L3 34L3 33L4 33L4 35L1 35L1 36L0 36L0 37L1 37L1 36L3 36L3 37L5 37L5 33L4 33L4 32L6 32L6 33L7 33L7 34L6 34L6 35L7 35L7 34L8 34L8 39L9 39L9 40L8 40L8 45L9 45L9 44L11 44L11 45L14 45L14 44L12 44L12 43L13 43L13 42L15 42L15 41L19 41L19 44L15 44L15 45L19 45L19 44L21 44L21 43L23 43L23 42L21 42L21 43L20 43L20 41L27 41L27 42L24 42L24 43L25 43L25 44L24 44L24 45L25 45L25 44L27 44L27 45L28 45L28 44L30 44L30 45L32 45L32 44L34 44L34 45L37 45L37 44L38 44L38 45L39 45L39 44L40 44L40 45L41 45L41 44L40 44L40 42L42 42L42 44L43 44L43 45L44 45L44 44L43 44L43 42L44 42L44 43L45 43L45 42L44 42L44 41L45 41L45 40L43 40L43 39L44 39L44 38L45 38L45 36L44 36L44 38L43 38L43 37L42 37L42 38L43 38L43 39L42 39L42 40L43 40L43 42L42 42L42 41L41 41L41 36L40 36L40 35L41 35L41 34L39 34L39 35L38 35L38 33L37 33L37 31L38 31L38 32L39 32L39 33L42 33L42 34L43 34L43 35L42 35L42 36L43 36L43 35L44 35L44 34L45 34L45 32L44 32L44 30L45 30L45 27L42 27L42 28L44 28L44 29L43 29L43 31L42 31L42 32L40 32L40 31L41 31L41 30L39 30L39 29L41 29L41 28L40 28L40 27L38 27L38 25L41 25L41 26L42 26L42 24L44 24L44 26L45 26L45 24L44 24L44 22L45 22L45 21L42 21L42 22L43 22L43 23L42 23L42 24L41 24L41 20L43 20L43 19L44 19L44 20L45 20L45 19L44 19L44 18L45 18L45 17L44 17L44 14L45 14L45 12L44 12L44 10L45 10L45 9L44 9L44 8L43 8L43 9L42 9L42 8L41 8L41 9L40 9L40 8L39 8L39 9L40 9L40 11L39 11L39 12L44 12L44 14L43 14L43 13L41 13L41 14L40 14L40 13L39 13L39 14L38 14L38 12L37 12L37 11L38 11L38 8L37 8L37 6L36 6L36 7L35 7L35 6L34 6L34 5L37 5L37 3L36 3L36 1L37 1L37 0L36 0L36 1L35 1L35 4L34 4L34 5L33 5L33 6L32 6L32 3L34 3L34 0L33 0L33 1L32 1L32 0L30 0L30 1L29 1L29 0L28 0L28 1L26 1L26 2L25 2L25 1L24 1L24 0L23 0L23 1L24 1L24 2L23 2L23 3L19 3L19 2L20 2L20 0L19 0L19 1L18 1L18 4L17 4L17 2L16 2L16 0ZM21 0L21 1L22 1L22 0ZM30 1L30 3L28 3L28 2L26 2L26 3L27 3L27 4L25 4L25 3L23 3L23 4L25 4L25 9L22 9L22 10L21 10L21 9L20 9L20 4L18 4L18 5L17 5L17 4L16 4L16 5L17 5L17 9L15 9L15 7L16 7L16 6L15 6L15 3L14 3L14 4L13 4L13 8L14 8L14 9L12 9L12 10L11 10L11 11L10 11L10 12L11 12L11 11L12 11L12 13L13 13L13 15L12 15L12 17L11 17L11 15L8 15L8 14L7 14L7 15L6 15L6 16L7 16L7 17L6 17L6 18L7 18L7 19L6 19L6 20L7 20L7 19L8 19L8 17L9 17L9 16L10 16L10 17L11 17L11 19L10 19L10 18L9 18L9 19L10 19L10 20L9 20L9 21L10 21L10 22L9 22L9 24L11 24L11 23L10 23L10 22L11 22L11 21L13 21L13 22L14 22L14 21L15 21L15 20L16 20L16 19L17 19L17 21L16 21L16 22L15 22L15 23L16 23L16 24L17 24L17 25L15 25L15 24L14 24L14 23L13 23L13 24L14 24L14 25L13 25L13 27L14 27L14 29L13 29L13 28L12 28L12 27L10 27L10 29L13 29L13 31L14 31L14 32L13 32L13 33L12 33L12 31L11 31L11 30L9 30L9 32L11 32L11 33L12 33L12 34L11 34L11 35L12 35L12 36L11 36L11 37L13 37L13 38L12 38L12 39L13 39L13 40L14 40L14 41L15 41L15 40L14 40L14 39L16 39L16 40L17 40L17 39L18 39L18 40L19 40L19 41L20 41L20 40L19 40L19 39L18 39L18 38L20 38L20 36L22 36L22 35L23 35L23 36L24 36L24 35L25 35L25 40L27 40L27 39L26 39L26 38L27 38L27 37L26 37L26 36L28 36L28 39L29 39L29 40L28 40L28 41L29 41L29 42L28 42L28 43L32 43L32 41L33 41L33 40L32 40L32 39L34 39L34 40L35 40L35 41L34 41L34 42L33 42L33 43L34 43L34 44L36 44L36 42L37 42L37 41L36 41L36 40L35 40L35 37L36 37L36 36L37 36L37 35L36 35L36 34L35 34L35 33L36 33L36 32L33 32L33 30L32 30L32 29L34 29L34 30L36 30L36 31L37 31L37 30L38 30L38 31L39 31L39 30L38 30L38 29L39 29L39 28L38 28L38 27L37 27L37 26L36 26L36 28L35 28L35 27L34 27L34 28L32 28L32 29L31 29L31 31L32 31L32 33L31 33L31 34L30 34L30 31L29 31L29 29L30 29L30 27L33 27L33 26L35 26L35 25L36 25L36 22L35 22L35 21L36 21L36 19L37 19L37 18L36 18L36 19L34 19L34 18L35 18L35 16L36 16L36 17L37 17L37 16L36 16L36 15L38 15L38 14L35 14L35 13L36 13L36 12L35 12L35 11L36 11L36 10L35 10L35 9L33 9L33 8L32 8L32 6L31 6L31 5L28 5L28 6L27 6L27 7L26 7L26 5L27 5L27 4L31 4L31 3L32 3L32 2L31 2L31 1ZM11 4L11 7L12 7L12 4ZM21 5L21 8L24 8L24 5ZM14 6L14 7L15 7L15 6ZM18 6L18 9L19 9L19 6ZM22 6L22 7L23 7L23 6ZM28 6L28 7L27 7L27 8L26 8L26 9L27 9L27 8L29 8L29 6ZM30 6L30 10L23 10L23 12L22 12L22 11L21 11L21 10L20 10L20 11L19 11L19 10L18 10L18 11L17 11L17 12L16 12L16 11L15 11L15 12L16 12L16 13L14 13L14 11L13 11L13 13L14 13L14 15L13 15L13 17L14 17L14 18L13 18L13 19L11 19L11 20L13 20L13 21L14 21L14 20L15 20L15 19L16 19L16 18L15 18L15 17L17 17L17 18L18 18L18 19L19 19L19 20L18 20L18 21L19 21L19 24L18 24L18 25L19 25L19 26L20 26L20 25L22 25L22 28L23 28L23 27L24 27L24 29L27 29L27 30L26 30L26 31L27 31L27 32L25 32L25 31L23 31L23 32L25 32L25 33L24 33L24 34L23 34L23 33L22 33L22 30L23 30L23 29L22 29L22 30L21 30L21 29L19 29L19 28L21 28L21 27L18 27L18 26L16 26L16 28L15 28L15 29L14 29L14 31L15 31L15 29L17 29L17 27L18 27L18 29L19 29L19 30L18 30L18 31L19 31L19 32L17 32L17 31L16 31L16 32L15 32L15 33L14 33L14 34L13 34L13 35L14 35L14 36L15 36L15 37L14 37L14 38L15 38L15 37L19 37L19 36L17 36L17 34L18 34L18 35L19 35L19 34L20 34L20 33L22 33L22 34L21 34L21 35L22 35L22 34L23 34L23 35L24 35L24 34L25 34L25 35L27 35L27 34L28 34L28 36L29 36L29 35L30 35L30 36L31 36L31 37L29 37L29 39L30 39L30 40L31 40L31 39L32 39L32 36L33 36L33 37L34 37L34 35L35 35L35 36L36 36L36 35L35 35L35 34L34 34L34 33L32 33L32 34L33 34L33 35L30 35L30 34L28 34L28 32L29 32L29 31L28 31L28 28L29 28L29 27L30 27L30 26L31 26L31 25L32 25L32 26L33 26L33 25L32 25L32 24L31 24L31 23L32 23L32 20L34 20L34 21L35 21L35 20L34 20L34 19L32 19L32 16L31 16L31 15L30 15L30 18L29 18L29 17L27 17L27 16L29 16L29 15L28 15L28 13L27 13L27 14L24 14L24 13L25 13L25 12L24 12L24 11L29 11L29 12L30 12L30 13L29 13L29 14L33 14L33 13L32 13L32 12L33 12L33 11L35 11L35 10L33 10L33 9L31 9L31 6ZM33 6L33 7L34 7L34 8L35 8L35 7L34 7L34 6ZM36 8L36 9L37 9L37 8ZM3 9L3 11L5 11L5 10L4 10L4 9ZM6 9L6 10L7 10L7 9ZM43 9L43 10L44 10L44 9ZM30 10L30 11L31 11L31 10ZM32 10L32 11L33 11L33 10ZM41 10L41 11L42 11L42 10ZM20 11L20 12L19 12L19 13L18 13L18 12L17 12L17 13L16 13L16 14L17 14L17 15L16 15L16 16L17 16L17 17L18 17L18 18L19 18L19 19L20 19L20 20L21 20L21 19L20 19L20 18L21 18L21 17L22 17L22 18L23 18L23 17L24 17L24 18L25 18L25 22L28 22L28 23L29 23L29 24L27 24L27 23L25 23L25 26L24 26L24 25L23 25L23 26L24 26L24 27L25 27L25 28L28 28L28 27L29 27L29 26L30 26L30 23L31 23L31 22L30 22L30 21L29 21L29 20L30 20L30 19L31 19L31 18L30 18L30 19L29 19L29 20L28 20L28 21L27 21L27 19L28 19L28 18L27 18L27 17L26 17L26 15L25 15L25 17L24 17L24 14L22 14L22 12L21 12L21 11ZM2 12L2 14L3 14L3 12ZM23 12L23 13L24 13L24 12ZM19 13L19 14L18 14L18 15L22 15L22 14L21 14L21 13ZM34 14L34 15L33 15L33 16L34 16L34 15L35 15L35 14ZM39 14L39 15L40 15L40 14ZM41 14L41 16L39 16L39 17L38 17L38 18L39 18L39 19L40 19L40 18L39 18L39 17L41 17L41 18L44 18L44 17L43 17L43 16L42 16L42 14ZM14 15L14 17L15 17L15 15ZM18 16L18 17L19 17L19 16ZM1 17L1 18L2 18L2 17ZM3 17L3 18L4 18L4 17ZM14 18L14 19L13 19L13 20L14 20L14 19L15 19L15 18ZM26 18L26 19L27 19L27 18ZM22 19L22 20L23 20L23 19ZM2 21L2 22L1 22L1 23L2 23L2 22L3 22L3 21ZM5 21L5 24L8 24L8 21ZM21 21L21 24L24 24L24 21ZM37 21L37 24L40 24L40 21ZM6 22L6 23L7 23L7 22ZM22 22L22 23L23 23L23 22ZM33 22L33 24L34 24L34 25L35 25L35 24L34 24L34 23L35 23L35 22ZM38 22L38 23L39 23L39 22ZM26 24L26 25L27 25L27 26L25 26L25 27L28 27L28 26L29 26L29 25L27 25L27 24ZM6 25L6 26L7 26L7 27L5 27L5 28L4 28L4 27L3 27L3 26L2 26L2 27L3 27L3 29L2 29L2 31L1 31L1 33L2 33L2 32L4 32L4 31L6 31L6 32L8 32L8 31L6 31L6 30L8 30L8 29L9 29L9 28L8 28L8 29L6 29L6 30L5 30L5 28L7 28L7 27L9 27L9 26L10 26L10 25L8 25L8 26L7 26L7 25ZM11 25L11 26L12 26L12 25ZM14 25L14 27L15 27L15 25ZM3 29L3 30L4 30L4 29ZM36 29L36 30L37 30L37 29ZM19 30L19 31L20 31L20 32L21 32L21 31L20 31L20 30ZM42 32L42 33L44 33L44 32ZM9 33L9 35L10 35L10 33ZM15 33L15 34L14 34L14 35L16 35L16 34L17 34L17 33ZM25 33L25 34L27 34L27 33ZM6 36L6 37L7 37L7 36ZM9 36L9 39L11 39L11 38L10 38L10 36ZM21 37L21 40L24 40L24 37ZM37 37L37 40L40 40L40 37ZM22 38L22 39L23 39L23 38ZM30 38L30 39L31 39L31 38ZM38 38L38 39L39 39L39 38ZM10 40L10 41L9 41L9 43L10 43L10 41L11 41L11 42L12 42L12 40ZM30 41L30 42L31 42L31 41ZM38 41L38 44L39 44L39 41ZM17 42L17 43L18 43L18 42ZM34 42L34 43L35 43L35 42ZM0 0L0 7L7 7L7 0ZM1 1L1 6L6 6L6 1ZM2 2L2 5L5 5L5 2ZM38 0L38 7L45 7L45 0ZM39 1L39 6L44 6L44 1ZM40 2L40 5L43 5L43 2ZM0 38L0 45L7 45L7 38ZM1 39L1 44L6 44L6 39ZM2 40L2 43L5 43L5 40Z" fill="#000000"/></g></g></svg>
